{"title":"One to Another (2006)/Chacun sa nuit - English Subs ( DVD RIP )","uid":12601070,"size":992233684,"categoryP":"video","categoryS":"movies","magnet":"?xt=urn:btih:ba4df0e171f6f0d9d08ffcc371394dfeb6a25c9c&amp;dn=One+to+Another+%282006%29%2FChacun+sa+nuit+-+English+Subs+%28+DVD+RIP+%29+&amp;tr=udp%3A%2F%2Ftracker.leechers-paradise.org%3A6969&amp;tr=udp%3A%2F%2Fzer0day.ch%3A1337&amp;tr=udp%3A%2F%2Fopen.demonii.com%3A1337&amp;tr=udp%3A%2F%2Ftracker.coppersurfer.tk%3A6969&amp;tr=udp%3A%2F%2Fexodus.desync.com%3A6969","seeders":2,"leechers":1,"uploader":"jmanwf","files":3,"time":1445319777,"description":"Chacun Sa Nuit explores the carnal interdependencies among a host of characters who live in a town in provincial France. At the center of it all is Pierre (Arthur Dupont), a conceited and vain bisexual musician in his late teens who acts as a magnet, to varying degrees, for a whole array of characters - from his sister, Lucie (Lizzie Brocheré), with whom he has a heated incestuous relationship, to a city councilor with whom he participates in gay orgies. When Pierre turns up dead, Lucie investigates the reasons for his demise and charts the network of sadomasochistic relationships that crisscross the town.\r\n\r\n\r\nVideo\r\nID : 1\r\nFormat : AVC\r\nFormat/Info : Advanced Video Codec\r\nFormat profile :   \r\nFormat settings, CABAC : Yes\r\nFormat settings, ReFrames : 4 frames\r\nCodec ID : avc1\r\nCodec ID/Info : Advanced Video Coding\r\nDuration : 1h 33mn\r\nBit rate : 1 070 Kbps\r\nWidth : 720 pixels\r\nHeight : 480 pixels\r\nDisplay aspect ratio : 16:9\r\nOriginal display aspect ratio : 16:9\r\nFrame rate mode : Constant\r\nFrame rate : 29.970 fps\r\nStandard : NTSC\r\nColor space : YUV\r\nChroma subsampling : 4:2:0\r\nBit depth : 8 bits\r\nScan type : Progressive\r\nBits/(Pixel*Frame) : 0.103\r\nStream size : 717 MiB (77%)\r\nWriting library : x264 core 142 r2479 dd79a61\r\n\r\nEncoded date : UTC 2036-02-06 06:28:16\r\nTagged date : UTC 2036-02-06 06:28:16\r\nColor range : Limited\r\nColor primaries : BT.601 NTSC\r\nTransfer characteristics : BT.709\r\nMatrix coefficients : BT.601\r\n\r\nAudio\r\nID : 2\r\nFormat : AAC\r\nFormat/Info : Advanced Audio Codec\r\nFormat profile : LC\r\nCodec ID : 40\r\nDuration : 1h 33mn\r\nBit rate mode : Variable\r\nBit rate : 320 Kbps\r\nChannel(s) : 2 channels\r\nChannel positions : Front: L R\r\nSampling rate : 48.0 KHz\r\nCompression mode : Lossy\r\nStream size : 214 MiB (23%)\r\nTitle : Stereo / Stereo\r\nLanguage : French\r\nEncoded date : UTC 2036-02-06 06:28:16\r\nTagged date : UTC 2036-02-06 06:28:16\r\n\r\n\r\n\r\nAUDIO: FRENCH\r\n\r\n\r\nSUBTITLES: ENGLISH HARDCODED\r\n\r\n\r\n \nhttp://s22.postimg.org/3ke9guy1d/image.jpg\r\n\r\n\r\n \nhttp://s22.postimg.org/wo2hd3m4x/image.jpg\r\n\r\n\r\n \nhttp://s22.postimg.org/588thrmj5/image.jpg\r\n\r\n\r\n \nhttp://s22.postimg.org/nubkvzz69/image.jpg\r\n\r\n\r\n \nhttp://s22.postimg.org/e4jllpd5d/image.jpg\r\n\r\n\r\n \nhttp://s22.postimg.org/e5tjf4ez5/image.jpg","torrent":{"xt":"urn:btih:ba4df0e171f6f0d9d08ffcc371394dfeb6a25c9c","amp;dn":"One+to+Another+%282006%29%2FChacun+sa+nuit+-+English+Subs+%28+DVD+RIP+%29+","amp;tr":["udp%3A%2F%2Ftracker.leechers-paradise.org%3A6969","udp%3A%2F%2Fzer0day.ch%3A1337","udp%3A%2F%2Fopen.demonii.com%3A1337","udp%3A%2F%2Ftracker.coppersurfer.tk%3A6969","udp%3A%2F%2Fexodus.desync.com%3A6969"],"infoHash":"ba4df0e171f6f0d9d08ffcc371394dfeb6a25c9c","infoHashBuffer":{"type":"Buffer","data":[186,77,240,225,113,246,240,217,208,143,252,195,113,57,77,254,182,162,92,156]},"announce":[],"urlList":[]}}